# xmcd
#
# Track frame offsets: 
#        150
#        21157
#        36210
#        54384
#        72345
#        86640
#        106454
#        127842
#        146112
#        165019
#        191909
#
# Disc length: 2682 seconds
#
# Revision: 0
# Processed by: cddbd v1.5.2PL0 Copyright (c) Steve Scherf et al.
# Submitted via: ExactAudioCopy v0.90b4
#
DISCID=920a780b
DTITLE=Nathan James - I Don't Know It
DYEAR=2009
DGENRE=Blues
TTITLE0=No Baby Don't
TTITLE1=Walk With Your Maker
TTITLE2=Heart Desire
TTITLE3=I Don't Know It
TTITLE4=Too Long
TTITLE5=My Last Nerve
TTITLE6=Easy Baby
TTITLE7=Send You Back Home
TTITLE8=Undecided Woman Blues
TTITLE9=Wayfaring Stranger
TTITLE10=Pain And Waiting
EXTD=
EXTT0=
EXTT1=
EXTT2=
EXTT3=
EXTT4=
EXTT5=
EXTT6=
EXTT7=
EXTT8=
EXTT9=
EXTT10=
PLAYORDER=
